<svg width="57" height="45" viewBox="0 0 57 45" fill="none" xmlns="http://www.w3.org/2000/svg">
<path d="M28.1944 44L41.1182 11.75H15.1158L28.1944 44Z" fill="#CBDFF7"/>
<path d="M1 11.75L28.1944 44L15.1158 11.75H1Z" fill="#E6F3FC"/>
<path d="M10.7778 1L1 11.75H15.1158L10.7778 1Z" fill="#CBDFF7"/>
<path d="M28.1944 1H10.7778L15.1158 11.75L28.1944 1Z" fill="#E6F3FC"/>
<path d="M41.1182 11.75L28.1944 1L15.1158 11.75H41.1182Z" fill="#CBDFF7"/>
<path d="M41.1182 11.75L45.6111 1H28.1944L41.1182 11.75Z" fill="#E6F3FC"/>
<path d="M56 11.75L45.6111 1L41.1182 11.75H56Z" fill="#CBDFF7"/>
<path d="M28.1944 44L56 11.75H41.1182L28.1944 44Z" fill="#E6F3FC"/>
<path d="M1 11.75L28.1944 44M1 11.75L10.7778 1M1 11.75H15.1158M28.1944 44L56 11.75M28.1944 44L41.1182 11.75M28.1944 44L15.1158 11.75M56 11.75L45.6111 1M56 11.75H41.1182M45.6111 1L41.1182 11.75M45.6111 1H28.1944M10.7778 1H28.1944M10.7778 1L15.1158 11.75M41.1182 11.75L28.1944 1M41.1182 11.75H15.1158M28.1944 1L15.1158 11.75" stroke="#313131"/>
</svg>
